<?xml version="1.0" standalone="no"?><!DOCTYPE svg PUBLIC "-//W3C//DTD SVG 1.1//EN" "http://www.w3.org/Graphics/SVG/1.1/DTD/svg11.dtd"><svg t="1704157934927" class="icon" viewBox="0 0 1024 1024" version="1.1" xmlns="http://www.w3.org/2000/svg" p-id="1270" xmlns:xlink="http://www.w3.org/1999/xlink" width="200" height="200"><path d="M512 85.333333C277.333333 85.333333 85.333333 277.333333 85.333333 512s192 426.666667 426.666667 426.666667 426.666667-192 426.666667-426.666667S746.666667 85.333333 512 85.333333z m0 789.333334c-200.533333 0-362.666667-162.133333-362.666667-362.666667S311.466667 149.333333 512 149.333333s362.666667 162.133333 362.666667 362.666667-162.133333 362.666667-362.666667 362.666667z" p-id="1271"></path><path d="M693.333333 480h-149.333333v-149.333333c0-17.066667-14.933333-32-32-32s-32 14.933333-32 32v149.333333h-149.333333c-17.066667 0-32 14.933333-32 32s14.933333 32 32 32h149.333333v149.333333c0 17.066667 14.933333 32 32 32s32-14.933333 32-32v-149.333333h149.333333c17.066667 0 32-14.933333 32-32s-14.933333-32-32-32z" p-id="1272"></path></svg>